<svg width="24" height="32" viewBox="0 0 24 32" fill="none" xmlns="http://www.w3.org/2000/svg">
<g clip-path="url(#clip0_2_227)">
<path fill-rule="evenodd" clip-rule="evenodd" d="M17.25 7H6.75C5.92157 7 5.25 7.67157 5.25 8.5V25C5.25014 25.2726 5.39815 25.5236 5.63659 25.6557C5.87503 25.7878 6.16636 25.7801 6.3975 25.6356L12 22.1341L17.6034 25.6356C17.8345 25.7796 18.1255 25.787 18.3636 25.655C18.6018 25.523 18.7497 25.2723 18.75 25V8.5C18.75 7.67157 18.0784 7 17.25 7ZM12.3966 20.6144C12.1534 20.4624 11.8448 20.4624 11.6016 20.6144L6.75 23.6472V20.9153L12 17.6341L17.25 20.9153V23.6472L12.3966 20.6144Z" fill="#0D141C"/>
</g>
<defs>
<clipPath id="clip0_2_227">
<rect width="24" height="24" fill="white" transform="translate(0 4)"/>
</clipPath>
</defs>
</svg>
