<svg width="24" height="32" viewBox="0 0 24 32" fill="none" xmlns="http://www.w3.org/2000/svg">
<g clip-path="url(#clip0_2_155)">
<path fill-rule="evenodd" clip-rule="evenodd" d="M15.75 14.5C15.75 17.3995 13.3995 19.75 10.5 19.75C7.6005 19.75 5.25 17.3995 5.25 14.5C5.25 11.6005 7.6005 9.25 10.5 9.25C13.3995 9.25 15.75 11.6005 15.75 14.5ZM21.5306 25.5306C21.3899 25.6715 21.1991 25.7506 21 25.7506C20.8009 25.7506 20.6101 25.6715 20.4694 25.5306L15.7762 20.8366C12.3858 23.6572 7.37647 23.3124 4.40446 20.0538C1.43245 16.7952 1.54894 11.7754 4.66892 8.65816C7.7889 5.54094 12.8088 5.42888 16.0648 8.40377C19.3208 11.3787 19.6611 16.3883 16.8375 19.7762L21.5306 24.4694C21.6715 24.6101 21.7506 24.8009 21.7506 25C21.7506 25.1991 21.6715 25.3899 21.5306 25.5306ZM10.5 21.25C14.2279 21.25 17.25 18.2279 17.25 14.5C17.25 10.7721 14.2279 7.75 10.5 7.75C6.77208 7.75 3.75 10.7721 3.75 14.5C3.75413 18.2262 6.77379 21.2459 10.5 21.25Z" fill="#0D141C"/>
</g>
<defs>
<clipPath id="clip0_2_155">
<rect width="24" height="24" fill="white" transform="translate(0 4)"/>
</clipPath>
</defs>
</svg>
